<svg width="239" height="54" viewBox="0 0 239 54" fill="none" xmlns="http://www.w3.org/2000/svg">
<path d="M33.8816 1.5843C34.8909 0.570155 36.2626 0 37.6934 0H41.452C44.4219 0 46.8296 2.40761 46.8296 5.37756V37.6429C46.8296 40.6128 44.4219 43.0205 41.452 43.0205H26.7757C25.8048 45.1117 33.0309 29.5205 31.089 33.6657C29.1844 37.8109 27.7467 40.9292 26.7757 43.0205H23.4148C22.4438 40.9292 20.9874 37.8109 19.0455 33.6657C17.141 29.5205 24.3857 45.1117 23.4148 43.0205H8.73853C5.76859 43.0205 3.36097 40.6128 3.36097 37.6429V5.37756C3.36097 2.40761 5.76859 0 8.73853 0H12.4972C13.9279 0 15.2997 0.570154 16.3089 1.5843L21.2835 6.58317C23.3857 8.69556 26.8048 8.69556 28.907 6.58317L33.8816 1.5843Z" fill="white"/>
<path d="M49.7424 43.2445C49.7424 38.1339 47.122 33.2326 42.4578 29.6189C37.7935 26.0051 31.4674 23.9749 24.8712 23.9749C18.2749 23.9749 11.9489 26.0051 7.28461 29.6189C2.62035 33.2326 9.96006e-07 38.1339 0 43.2445L49.7424 43.2445Z" fill="#E5592A"/>
<path d="M48.398 44.3648C48.398 39.5514 45.9193 34.935 41.5072 31.5314C37.095 28.1277 31.1109 26.2156 24.8712 26.2156C18.6315 26.2156 12.6474 28.1277 8.23523 31.5314C3.8231 34.935 1.34439 39.5514 1.34439 44.3648L48.398 44.3648Z" fill="white"/>
<path d="M19.7177 20.614C19.7177 19.9952 20.2193 19.4936 20.838 19.4936H29.3525C29.9712 19.4936 30.4728 19.9952 30.4728 20.614C30.4728 21.2327 29.9712 21.7343 29.3525 21.7343H20.838C20.2193 21.7343 19.7177 21.2327 19.7177 20.614Z" fill="#E5592A"/>
<path d="M101.005 37.8392C101.005 38.6996 101.005 39.4022 101.005 39.9472C101.034 40.4921 101.062 40.9223 101.091 41.2378C101.12 41.582 101.148 41.8401 101.177 42.0122C99.4274 42.0122 98.0795 41.6537 97.133 40.9366C96.1866 40.191 95.7133 38.9577 95.7133 37.2369L95.9715 17.1463C95.1684 19.4694 94.394 21.6348 93.6483 23.6424C93.3329 24.5028 93.003 25.3919 92.6589 26.3097C92.3434 27.1988 92.0279 28.0449 91.7124 28.8479C91.4256 29.6509 91.1532 30.3966 90.895 31.085C90.6369 31.7446 90.4075 32.2895 90.2067 32.7197C89.7765 33.6662 89.2316 34.3258 88.5719 34.6987C87.9123 35.0428 87.2813 35.2436 86.679 35.301C85.962 35.3583 85.2307 35.2579 84.485 34.9998L77.8598 17.1463L78.0319 37.8392C78.0319 38.6996 78.0319 39.4022 78.0319 39.9472C78.0606 40.4921 78.0893 40.9223 78.118 41.2378C78.1467 41.582 78.1753 41.8401 78.204 42.0122C76.4258 42.0122 75.0635 41.6537 74.1171 40.9366C73.1993 40.191 72.7404 38.9577 72.7404 37.2369V12.4571L72.9125 12.3711C73.0846 12.3424 73.2853 12.2994 73.5148 12.242C73.7155 12.2133 73.9306 12.1846 74.1601 12.156C74.4182 12.1273 74.705 12.1129 75.0205 12.1129C75.9383 12.1129 76.7987 12.2277 77.6017 12.4571C78.4048 12.6866 79.1505 13.0737 79.8388 13.6187C80.5558 14.1349 81.2154 14.8519 81.8177 15.7697C82.42 16.6588 82.9793 17.7773 83.4955 19.1253C83.5242 19.24 83.5959 19.4694 83.7106 19.8136C83.854 20.1578 84.0118 20.5736 84.1839 21.0612C84.3559 21.5488 84.5424 22.0793 84.7431 22.653C84.9439 23.2266 85.1446 23.8145 85.3454 24.4168C85.833 25.7934 86.3635 27.3278 86.9372 29.02L90.3358 19.1253C90.852 17.7773 91.4113 16.6588 92.0136 15.7697C92.6159 14.8519 93.2612 14.1349 93.9495 13.6187C94.6665 13.0737 95.4265 12.6866 96.2296 12.4571C97.0326 12.2277 97.893 12.1129 98.8108 12.1129C99.1263 12.1129 99.3988 12.1273 99.6282 12.156C99.8863 12.1846 100.116 12.2133 100.317 12.242C100.546 12.2994 100.747 12.3424 100.919 12.3711L101.091 12.4571L101.005 37.8392Z" fill="white"/>
<path d="M107.156 31.0419C107.93 30.5544 108.805 30.1959 109.78 29.9664C110.755 29.7083 111.773 29.5792 112.834 29.5792C114.326 29.5792 115.746 29.7943 117.093 30.2246C117.007 29.3355 116.821 28.5468 116.534 27.8584C116.161 26.9693 115.602 26.324 114.856 25.9225C114.57 25.7791 114.254 25.6787 113.91 25.6214C113.594 25.5353 113.222 25.4923 112.791 25.4923H112.318C111.917 25.521 111.515 25.5927 111.114 25.7074C110.712 25.7934 110.311 25.9082 109.909 26.0516C109.508 26.195 109.106 26.324 108.704 26.4388C108.303 26.5248 107.916 26.5678 107.543 26.5678C107.141 26.5678 106.754 26.4818 106.381 26.3097C106.037 26.1089 105.736 25.7791 105.478 25.3202L105.392 25.1481L105.478 25.0191C106.338 24.1013 107.342 23.37 108.489 22.825C109.665 22.2514 110.942 21.9216 112.318 21.8356C112.462 21.8069 112.576 21.7925 112.662 21.7925C112.777 21.7925 112.906 21.7925 113.05 21.7925C114.369 21.7925 115.573 22.0363 116.663 22.5239C117.753 22.9828 118.7 23.6281 119.503 24.4598C121.137 26.238 121.983 28.5754 122.041 31.4721V31.8163C122.041 34.7991 121.281 37.2225 119.761 39.0868C119.015 40.0045 118.112 40.7502 117.05 41.3238C116.018 41.8974 114.856 42.2559 113.566 42.3993C113.394 42.428 113.222 42.4424 113.05 42.4424C112.877 42.4424 112.691 42.4424 112.49 42.4424C111.888 42.4424 111.257 42.385 110.597 42.2703C109.938 42.1842 109.292 41.9978 108.661 41.711C108.002 41.4529 107.4 41.1231 106.855 40.7215C106.31 40.2913 105.851 39.7464 105.478 39.0868C104.933 38.255 104.646 37.2369 104.618 36.0323V35.7742C104.618 34.6557 104.847 33.7236 105.306 32.9779C105.707 32.2322 106.324 31.5869 107.156 31.0419ZM116.061 33.1069C115.688 33.0496 115.258 32.9922 114.77 32.9348C114.311 32.8775 113.838 32.8488 113.351 32.8488C112.949 32.8488 112.562 32.8775 112.189 32.9348C111.816 32.9635 111.472 33.0352 111.157 33.1499C110.44 33.3794 109.895 33.7379 109.522 34.2255C109.378 34.3975 109.264 34.5983 109.178 34.8277C109.092 35.0285 109.034 35.2579 109.006 35.5161C108.977 35.6021 108.963 35.7312 108.963 35.9033C108.963 36.1901 109.006 36.5055 109.092 36.8497C109.178 37.1652 109.35 37.4663 109.608 37.7531C109.837 38.0399 110.167 38.2837 110.597 38.4845C111.056 38.6852 111.659 38.7856 112.404 38.7856C112.634 38.7856 112.806 38.7713 112.921 38.7426C113.724 38.7139 114.426 38.4845 115.029 38.0543C115.315 37.8822 115.559 37.6814 115.76 37.452C115.961 37.1939 116.133 36.9214 116.276 36.6346C116.592 36.0897 116.807 35.5304 116.921 34.9568C117.036 34.3832 117.093 33.8526 117.093 33.365C117.065 33.365 117.036 33.365 117.007 33.365C117.007 33.3364 116.993 33.322 116.964 33.322C116.85 33.2934 116.721 33.2647 116.577 33.236C116.434 33.2073 116.262 33.1643 116.061 33.1069Z" fill="white"/>
<path d="M125.294 31.171C125.294 29.2494 125.566 27.6863 126.111 26.4818C126.685 25.2485 127.402 24.2877 128.262 23.5994C129.151 22.9111 130.141 22.4522 131.23 22.2228C132.349 21.9646 133.467 21.8356 134.586 21.8356C135.676 21.8356 136.78 21.9646 137.899 22.2228C139.017 22.4522 140.021 22.9111 140.91 23.5994C141.828 24.2877 142.559 25.2485 143.104 26.4818C143.678 27.6863 143.964 29.2494 143.964 31.171L144.137 42.0122C142.387 42.0122 141.039 41.6393 140.093 40.8936C139.146 40.1479 138.673 38.929 138.673 37.2369L138.716 31.171C138.716 29.9664 138.587 29.0056 138.329 28.2886C138.099 27.5429 137.784 26.9693 137.382 26.5678C136.981 26.1376 136.536 25.8508 136.049 25.7074C135.561 25.564 135.074 25.4923 134.586 25.4923C134.098 25.4923 133.611 25.564 133.123 25.7074C132.664 25.8508 132.234 26.1376 131.833 26.5678C131.46 26.9693 131.144 27.5429 130.886 28.2886C130.657 29.0056 130.542 29.9664 130.542 31.171V37.8392C130.571 38.6996 130.585 39.4022 130.585 39.9472C130.614 40.4921 130.642 40.9223 130.671 41.2378C130.7 41.582 130.729 41.8401 130.757 42.0122C128.979 42.0122 127.617 41.6393 126.67 40.8936C125.724 40.1479 125.251 38.929 125.251 37.2369L125.294 31.171Z" fill="white"/>
<path d="M152.248 41.4959C153.539 41.0944 154.93 40.8219 156.421 40.6785C157.913 40.5064 159.289 40.5781 160.551 40.8936C161.842 41.2091 162.903 41.8114 163.735 42.7005C164.566 43.5896 164.982 44.8658 164.982 46.5293C164.982 47.7626 164.71 48.8381 164.165 49.7558C163.677 50.5876 163.003 51.3046 162.143 51.9069C161.311 52.4518 160.436 52.839 159.519 53.0684C158.601 53.2979 157.755 53.4126 156.98 53.4126H156.593C155.274 53.3552 154.069 53.0684 152.98 52.5522C151.89 52.0359 150.929 51.3333 150.097 50.4442C149.294 49.5264 148.649 48.4509 148.161 47.2176C147.702 46.0131 147.444 44.6364 147.387 43.0877C147.358 42.9729 147.344 42.8582 147.344 42.7435C147.344 42.6288 147.344 42.5141 147.344 42.3993C147.344 40.7646 147.631 39.2875 148.204 37.9682C148.778 36.6489 149.581 35.5591 150.613 34.6987C149.696 34.0104 148.964 33.1786 148.419 32.2035C147.903 31.1997 147.645 30.1098 147.645 28.9339C147.645 27.8728 147.875 26.8833 148.333 25.9655C148.792 25.0478 149.423 24.2591 150.226 23.5994C151.029 22.9111 151.961 22.3805 153.023 22.0076C154.084 21.6061 155.217 21.4054 156.421 21.4054C157.769 21.4054 158.974 21.6061 160.035 22.0076C161.125 22.3805 162.043 22.9111 162.788 23.5994C164.394 24.9761 165.197 26.7542 165.197 28.9339C165.197 29.9377 164.968 30.8985 164.509 31.8163C164.079 32.7341 163.477 33.5228 162.702 34.1824C161.957 34.8421 161.082 35.3727 160.078 35.7742C159.103 36.147 158.056 36.3621 156.937 36.4195V36.4625H156.679C155.733 36.4625 154.973 36.6203 154.399 36.9357C153.826 37.2225 153.381 37.6384 153.066 38.1833C152.75 38.6422 152.535 39.2158 152.42 39.9042C152.306 40.5925 152.248 41.1231 152.248 41.4959ZM156.421 25.0621C156.163 25.0621 155.848 25.1195 155.475 25.2342C155.102 25.3202 154.743 25.5066 154.399 25.7934C154.084 26.0802 153.811 26.4818 153.582 26.998C153.352 27.4856 153.238 28.1309 153.238 28.9339C153.238 29.737 153.352 30.3966 153.582 30.9129C153.811 31.4004 154.084 31.7876 154.399 32.0744C154.743 32.3326 155.102 32.519 155.475 32.6337C155.848 32.7197 156.163 32.7628 156.421 32.7628C156.708 32.7628 157.038 32.7197 157.411 32.6337C157.784 32.519 158.128 32.3326 158.443 32.0744C158.787 31.7876 159.074 31.4004 159.304 30.9129C159.533 30.3966 159.648 29.737 159.648 28.9339C159.648 28.1309 159.533 27.4856 159.304 26.998C159.074 26.4818 158.787 26.0802 158.443 25.7934C158.128 25.5066 157.784 25.3202 157.411 25.2342C157.038 25.1195 156.708 25.0621 156.421 25.0621ZM160.035 48.6803C160.322 48.3935 160.508 48.078 160.594 47.7339C160.68 47.4184 160.723 47.1029 160.723 46.7874C160.723 46.5006 160.709 46.3142 160.68 46.2282C160.594 45.8266 160.436 45.4538 160.207 45.1096C160.006 44.8515 159.719 44.6221 159.347 44.4213C158.974 44.2492 158.572 44.1202 158.142 44.0341C157.712 43.9768 157.267 43.9481 156.808 43.9481C156.35 43.9481 155.891 43.9768 155.432 44.0341C154.973 44.0915 154.543 44.1488 154.141 44.2062C153.74 44.2922 153.381 44.3783 153.066 44.4643C152.779 44.5504 152.564 44.6077 152.42 44.6364C152.478 44.9806 152.549 45.3534 152.635 45.7549C152.721 46.1565 152.851 46.558 153.023 46.9595C153.223 47.4184 153.467 47.8343 153.754 48.2071C154.041 48.6086 154.399 48.9241 154.829 49.1536C155.432 49.5264 156.149 49.7128 156.98 49.7128C157.812 49.7128 158.458 49.6124 158.916 49.4117C159.404 49.2109 159.777 48.9671 160.035 48.6803Z" fill="white"/>
<path d="M168.83 31.0419C169.604 30.5544 170.479 30.1959 171.454 29.9664C172.429 29.7083 173.447 29.5792 174.508 29.5792C176 29.5792 177.419 29.7943 178.767 30.2246C178.681 29.3355 178.495 28.5468 178.208 27.8584C177.835 26.9693 177.276 26.324 176.53 25.9225C176.243 25.7791 175.928 25.6787 175.584 25.6214C175.268 25.5353 174.895 25.4923 174.465 25.4923H173.992C173.591 25.521 173.189 25.5927 172.787 25.7074C172.386 25.7934 171.984 25.9082 171.583 26.0516C171.181 26.195 170.78 26.324 170.378 26.4388C169.977 26.5248 169.59 26.5678 169.217 26.5678C168.815 26.5678 168.428 26.4818 168.055 26.3097C167.711 26.1089 167.41 25.7791 167.152 25.3202L167.066 25.1481L167.152 25.0191C168.012 24.1013 169.016 23.37 170.163 22.825C171.339 22.2514 172.615 21.9216 173.992 21.8356C174.135 21.8069 174.25 21.7925 174.336 21.7925C174.451 21.7925 174.58 21.7925 174.723 21.7925C176.043 21.7925 177.247 22.0363 178.337 22.5239C179.427 22.9828 180.373 23.6281 181.176 24.4598C182.811 26.238 183.657 28.5754 183.715 31.4721V31.8163C183.715 34.7991 182.955 37.2225 181.435 39.0868C180.689 40.0045 179.785 40.7502 178.724 41.3238C177.692 41.8974 176.53 42.2559 175.24 42.3993C175.068 42.428 174.895 42.4424 174.723 42.4424C174.551 42.4424 174.365 42.4424 174.164 42.4424C173.562 42.4424 172.931 42.385 172.271 42.2703C171.612 42.1842 170.966 41.9978 170.335 41.711C169.676 41.4529 169.073 41.1231 168.528 40.7215C167.984 40.2913 167.525 39.7464 167.152 39.0868C166.607 38.255 166.32 37.2369 166.291 36.0323V35.7742C166.291 34.6557 166.521 33.7236 166.98 32.9779C167.381 32.2322 167.998 31.5869 168.83 31.0419ZM177.735 33.1069C177.362 33.0496 176.932 32.9922 176.444 32.9348C175.985 32.8775 175.512 32.8488 175.025 32.8488C174.623 32.8488 174.236 32.8775 173.863 32.9348C173.49 32.9635 173.146 33.0352 172.831 33.1499C172.113 33.3794 171.569 33.7379 171.196 34.2255C171.052 34.3975 170.938 34.5983 170.852 34.8277C170.766 35.0285 170.708 35.2579 170.679 35.5161C170.651 35.6021 170.636 35.7312 170.636 35.9033C170.636 36.1901 170.679 36.5055 170.766 36.8497C170.852 37.1652 171.024 37.4663 171.282 37.7531C171.511 38.0399 171.841 38.2837 172.271 38.4845C172.73 38.6852 173.332 38.7856 174.078 38.7856C174.308 38.7856 174.48 38.7713 174.594 38.7426C175.397 38.7139 176.1 38.4845 176.702 38.0543C176.989 37.8822 177.233 37.6814 177.434 37.452C177.634 37.1939 177.807 36.9214 177.95 36.6346C178.265 36.0897 178.481 35.5304 178.595 34.9568C178.71 34.3832 178.767 33.8526 178.767 33.365C178.739 33.365 178.71 33.365 178.681 33.365C178.681 33.3364 178.667 33.322 178.638 33.322C178.524 33.2934 178.394 33.2647 178.251 33.236C178.108 33.2073 177.936 33.1643 177.735 33.1069Z" fill="white"/>
<path d="M186.967 31.171C186.967 29.2494 187.24 27.6863 187.785 26.4818C188.358 25.2485 189.075 24.2877 189.936 23.5994C190.825 22.9111 191.814 22.4522 192.904 22.2228C194.023 21.9646 195.141 21.8356 196.26 21.8356C197.35 21.8356 198.454 21.9646 199.572 22.2228C200.691 22.4522 201.695 22.9111 202.584 23.5994C203.502 24.2877 204.233 25.2485 204.778 26.4818C205.352 27.6863 205.638 29.2494 205.638 31.171L205.81 42.0122C204.061 42.0122 202.713 41.6393 201.766 40.8936C200.82 40.1479 200.347 38.929 200.347 37.2369L200.39 31.171C200.39 29.9664 200.261 29.0056 200.003 28.2886C199.773 27.5429 199.458 26.9693 199.056 26.5678C198.655 26.1376 198.21 25.8508 197.723 25.7074C197.235 25.564 196.747 25.4923 196.26 25.4923C195.772 25.4923 195.285 25.564 194.797 25.7074C194.338 25.8508 193.908 26.1376 193.507 26.5678C193.134 26.9693 192.818 27.5429 192.56 28.2886C192.331 29.0056 192.216 29.9664 192.216 31.171V37.8392C192.245 38.6996 192.259 39.4022 192.259 39.9472C192.288 40.4921 192.316 40.9223 192.345 41.2378C192.374 41.582 192.402 41.8401 192.431 42.0122C190.653 42.0122 189.291 41.6393 188.344 40.8936C187.398 40.1479 186.924 38.929 186.924 37.2369L186.967 31.171Z" fill="white"/>
<path d="M214.567 15.9418C214.826 15.4829 214.955 14.9953 214.955 14.4791C214.955 13.9915 214.84 13.5326 214.61 13.1024C214.381 12.6722 214.037 12.3424 213.578 12.1129C213.176 11.8835 212.761 11.7688 212.33 11.7688C211.843 11.7688 211.37 11.9122 210.911 12.199C210.452 12.4571 210.093 12.83 209.835 13.3175C209.577 13.7477 209.448 14.2353 209.448 14.7802C209.448 15.2678 209.563 15.7267 209.792 16.1569C210.022 16.5584 210.351 16.8882 210.782 17.1463C211.183 17.3471 211.613 17.4475 212.072 17.4475C213.133 17.4475 213.965 16.9456 214.567 15.9418ZM217.923 38.1403C217.98 38.886 217.923 39.56 217.751 40.1623C217.608 40.6785 217.321 41.1804 216.891 41.668C216.46 42.1269 215.786 42.385 214.869 42.4424C213.979 42.5284 213.205 42.428 212.545 42.1412C211.886 41.8831 211.327 41.5103 210.868 41.0227C210.437 40.5351 210.108 39.9615 209.878 39.3019C209.677 38.6422 209.577 37.9539 209.577 37.2369L209.62 27.0841C209.62 25.3632 210.079 24.13 210.997 23.3843C211.914 22.6386 213.262 22.2658 215.041 22.2658C215.012 22.4665 214.983 22.739 214.955 23.0832C214.926 23.3986 214.897 23.8288 214.869 24.3738C214.869 24.89 214.869 25.5783 214.869 26.4388V36.7206C214.869 37.409 214.998 37.9109 215.256 38.2264C215.514 38.5132 215.815 38.6852 216.159 38.7426C216.503 38.8 216.847 38.7713 217.192 38.6566C217.536 38.5132 217.78 38.3411 217.923 38.1403Z" fill="white"/>
<path d="M220.157 31.171C220.157 29.2494 220.43 27.6863 220.974 26.4818C221.548 25.2485 222.265 24.2877 223.125 23.5994C224.015 22.9111 225.004 22.4522 226.094 22.2228C227.212 21.9646 228.331 21.8356 229.449 21.8356C230.539 21.8356 231.644 21.9646 232.762 22.2228C233.881 22.4522 234.884 22.9111 235.773 23.5994C236.691 24.2877 237.423 25.2485 237.967 26.4818C238.541 27.6863 238.828 29.2494 238.828 31.171L239 42.0122C237.251 42.0122 235.903 41.6393 234.956 40.8936C234.01 40.1479 233.536 38.929 233.536 37.2369L233.579 31.171C233.579 29.9664 233.45 29.0056 233.192 28.2886C232.963 27.5429 232.647 26.9693 232.246 26.5678C231.844 26.1376 231.4 25.8508 230.912 25.7074C230.425 25.564 229.937 25.4923 229.449 25.4923C228.962 25.4923 228.474 25.564 227.987 25.7074C227.528 25.8508 227.098 26.1376 226.696 26.5678C226.323 26.9693 226.008 27.5429 225.75 28.2886C225.52 29.0056 225.406 29.9664 225.406 31.171V37.8392C225.434 38.6996 225.449 39.4022 225.449 39.9472C225.477 40.4921 225.506 40.9223 225.535 41.2378C225.563 41.582 225.592 41.8401 225.621 42.0122C223.842 42.0122 222.48 41.6393 221.534 40.8936C220.587 40.1479 220.114 38.929 220.114 37.2369L220.157 31.171Z" fill="white"/>
</svg>
