<svg width="190" height="43" viewBox="0 0 190 43" fill="none" xmlns="http://www.w3.org/2000/svg">
<path d="M26.9352 1.27544C27.7375 0.459005 28.828 0 29.9654 0H32.9535C35.3145 0 37.2285 1.93826 37.2285 4.32922V30.3046C37.2285 32.6955 35.3145 34.6338 32.9535 34.6338H21.2862C20.5143 36.3174 26.2589 23.7656 24.7151 27.1027C23.201 30.4398 22.058 32.9502 21.2862 34.6338H18.6143C17.8424 32.9502 16.6845 30.4398 15.1408 27.1027C13.6267 23.7656 19.3861 36.3174 18.6143 34.6338H6.94695C4.58591 34.6338 2.6719 32.6955 2.6719 30.3046V4.32922C2.6719 1.93826 4.58591 0 6.94695 0H9.93497C11.0724 0 12.1629 0.459005 12.9652 1.27544L16.92 5.2998C18.5911 7.0004 21.3093 7.0004 22.9805 5.29981L26.9352 1.27544Z" fill="#E5592A"/>
<path d="M39.5442 34.8142C39.5442 30.6998 37.461 26.754 33.7531 23.8448C30.0451 20.9355 25.016 19.3011 19.7721 19.3011C14.5282 19.3011 9.4991 20.9355 5.79111 23.8448C2.08313 26.754 7.91804e-07 30.6998 0 34.8142L39.5442 34.8142Z" fill="white"/>
<path d="M38.4754 35.7161C38.4754 31.841 36.5049 28.1246 32.9973 25.3845C29.4898 22.6443 24.7325 21.105 19.7721 21.105C14.8117 21.105 10.0544 22.6443 6.54684 25.3845C3.03928 28.1246 1.06876 31.841 1.06876 35.7161L38.4754 35.7161Z" fill="#E5592A"/>
<path d="M15.6752 16.5954C15.6752 16.0972 16.0739 15.6934 16.5658 15.6934H23.3346C23.8265 15.6934 24.2253 16.0972 24.2253 16.5954C24.2253 17.0935 23.8265 17.4973 23.3346 17.4973H16.5658C16.0739 17.4973 15.6752 17.0935 15.6752 16.5954Z" fill="white"/>
<path d="M80.2967 30.4626C80.2967 31.1553 80.2967 31.7209 80.2967 32.1596C80.3195 32.5983 80.3423 32.9447 80.3651 33.1986C80.3879 33.4757 80.4107 33.6835 80.4335 33.822C79.0427 33.822 77.9711 33.5334 77.2187 32.9562C76.4663 32.3559 76.0901 31.3631 76.0901 29.9777L76.2953 13.8037C75.6569 15.6739 75.0413 17.4172 74.4485 19.0334C74.1977 19.7261 73.9355 20.4419 73.6619 21.1807C73.4111 21.8965 73.1603 22.5776 72.9095 23.2241C72.6815 23.8706 72.4649 24.4709 72.2597 25.0251C72.0545 25.5561 71.8721 25.9948 71.7125 26.3412C71.3705 27.1031 70.9372 27.6341 70.4128 27.9343C69.8884 28.2114 69.3868 28.373 68.908 28.4192C68.338 28.4654 67.7566 28.3845 67.1638 28.1767L61.8969 13.8037L62.0338 30.4626C62.0338 31.1553 62.0338 31.7209 62.0338 32.1596C62.0566 32.5983 62.0794 32.9447 62.1022 33.1986C62.125 33.4757 62.1477 33.6835 62.1705 33.822C60.7569 33.822 59.6739 33.5334 58.9215 32.9562C58.1919 32.3559 57.8271 31.3631 57.8271 29.9777V10.0286L57.9639 9.95938C58.1007 9.93629 58.2603 9.90165 58.4427 9.85547C58.6023 9.83239 58.7733 9.8093 58.9557 9.78621C59.1609 9.76312 59.3889 9.75157 59.6397 9.75157C60.3693 9.75157 61.0533 9.84393 61.6917 10.0286C62.3302 10.2134 62.923 10.5251 63.4702 10.9638C64.0402 11.3794 64.5646 11.9566 65.0434 12.6954C65.5222 13.4112 65.9668 14.3117 66.3772 15.3969C66.4 15.4892 66.457 15.6739 66.5482 15.951C66.6622 16.2281 66.7876 16.5629 66.9244 16.9554C67.0612 17.3479 67.2094 17.7751 67.369 18.2368C67.5286 18.6986 67.6882 19.172 67.8478 19.6568C68.2354 20.7651 68.6572 22.0004 69.1132 23.3626L71.8151 15.3969C72.2255 14.3117 72.6701 13.4112 73.1489 12.6954C73.6277 11.9566 74.1407 11.3794 74.6879 10.9638C75.2579 10.5251 75.8621 10.2134 76.5005 10.0286C77.1389 9.84393 77.8229 9.75157 78.5525 9.75157C78.8033 9.75157 79.0199 9.76312 79.2023 9.78621C79.4075 9.8093 79.5899 9.83239 79.7495 9.85547C79.9319 9.90165 80.0915 9.93629 80.2283 9.95938L80.3651 10.0286L80.2967 30.4626Z" fill="#E5592A"/>
<path d="M85.1866 24.9904C85.8022 24.5979 86.4976 24.3093 87.2728 24.1246C88.048 23.9168 88.8574 23.8129 89.701 23.8129C90.8867 23.8129 92.0153 23.9861 93.0869 24.3324C93.0185 23.6166 92.8703 22.9817 92.6423 22.4275C92.3459 21.7118 91.9013 21.1923 91.3085 20.869C91.0805 20.7536 90.8297 20.6728 90.556 20.6266C90.3052 20.5573 90.0088 20.5227 89.6668 20.5227H89.2906C88.9714 20.5458 88.6522 20.6035 88.333 20.6958C88.0138 20.7651 87.6946 20.8575 87.3754 20.9729C87.0562 21.0884 86.737 21.1923 86.4178 21.2846C86.0986 21.3539 85.7908 21.3885 85.4944 21.3885C85.1752 21.3885 84.8674 21.3193 84.571 21.1807C84.2974 21.0191 84.058 20.7536 83.8528 20.3841L83.7844 20.2456L83.8528 20.1417C84.5368 19.4029 85.3348 18.8141 86.2468 18.3754C87.1816 17.9136 88.1962 17.6481 89.2906 17.5788C89.4046 17.5557 89.4958 17.5442 89.5642 17.5442C89.6554 17.5442 89.758 17.5442 89.872 17.5442C90.9209 17.5442 91.8785 17.7404 92.7449 18.1329C93.6113 18.5024 94.3637 19.0219 95.0021 19.6915C96.3017 21.123 96.9743 23.0048 97.0199 25.3368V25.6138C97.0199 28.0151 96.4157 29.9662 95.2073 31.467C94.6145 32.2058 93.8963 32.8061 93.0527 33.2679C92.2319 33.7297 91.3085 34.0183 90.2824 34.1338C90.1456 34.1568 90.0088 34.1684 89.872 34.1684C89.7352 34.1684 89.587 34.1684 89.4274 34.1684C88.9486 34.1684 88.447 34.1222 87.9226 34.0299C87.3982 33.9606 86.8852 33.8105 86.3836 33.5796C85.8592 33.3718 85.3804 33.1063 84.9472 32.783C84.514 32.4367 84.1492 31.998 83.8528 31.467C83.4196 30.7974 83.1916 29.9777 83.1688 29.008V28.8002C83.1688 27.8997 83.3512 27.1493 83.716 26.549C84.0352 25.9486 84.5254 25.4291 85.1866 24.9904ZM92.2661 26.6529C91.9697 26.6067 91.6277 26.5605 91.2401 26.5143C90.8752 26.4681 90.499 26.4451 90.1114 26.4451C89.7922 26.4451 89.4844 26.4681 89.188 26.5143C88.8916 26.5374 88.618 26.5951 88.3672 26.6875C87.7972 26.8722 87.364 27.1608 87.0676 27.5533C86.9536 27.6919 86.8624 27.8535 86.794 28.0382C86.7256 28.1998 86.68 28.3845 86.6572 28.5923C86.6344 28.6616 86.623 28.7655 86.623 28.9041C86.623 29.1349 86.6572 29.3889 86.7256 29.666C86.794 29.92 86.9308 30.1624 87.136 30.3933C87.3184 30.6242 87.5806 30.8205 87.9226 30.9821C88.2874 31.1437 88.7662 31.2245 89.359 31.2245C89.5414 31.2245 89.6782 31.213 89.7694 31.1899C90.4078 31.1668 90.9665 30.9821 91.4453 30.6357C91.6733 30.4972 91.8671 30.3356 92.0267 30.1509C92.1863 29.9431 92.3231 29.7237 92.4371 29.4928C92.6879 29.0541 92.8589 28.6039 92.9501 28.1421C93.0413 27.6803 93.0869 27.2532 93.0869 26.8607C93.0641 26.8607 93.0413 26.8607 93.0185 26.8607C93.0185 26.8376 93.0071 26.826 92.9843 26.826C92.8931 26.8029 92.7905 26.7798 92.6765 26.7568C92.5625 26.7337 92.4257 26.699 92.2661 26.6529Z" fill="#E5592A"/>
<path d="M99.6058 25.0943C99.6058 23.5474 99.8224 22.289 100.256 21.3193C100.712 20.3264 101.282 19.5529 101.966 18.9988C102.672 18.4447 103.459 18.0752 104.325 17.8905C105.215 17.6827 106.104 17.5788 106.993 17.5788C107.859 17.5788 108.737 17.6827 109.626 17.8905C110.516 18.0752 111.314 18.4447 112.021 18.9988C112.75 19.5529 113.332 20.3264 113.765 21.3193C114.221 22.289 114.449 23.5474 114.449 25.0943L114.586 33.822C113.195 33.822 112.123 33.5219 111.371 32.9216C110.618 32.3213 110.242 31.34 110.242 29.9777L110.276 25.0943C110.276 24.1246 110.174 23.3511 109.968 22.7739C109.786 22.1736 109.535 21.7118 109.216 21.3885C108.897 21.0422 108.543 20.8113 108.156 20.6958C107.768 20.5804 107.381 20.5227 106.993 20.5227C106.605 20.5227 106.218 20.5804 105.83 20.6958C105.465 20.8113 105.123 21.0422 104.804 21.3885C104.508 21.7118 104.257 22.1736 104.052 22.7739C103.869 23.3511 103.778 24.1246 103.778 25.0943V30.4626C103.801 31.1553 103.812 31.7209 103.812 32.1596C103.835 32.5983 103.858 32.9447 103.881 33.1986C103.904 33.4757 103.926 33.6835 103.949 33.822C102.536 33.822 101.453 33.5219 100.7 32.9216C99.9478 32.3213 99.5716 31.34 99.5716 29.9777L99.6058 25.0943Z" fill="#E5592A"/>
<path d="M121.034 33.4064C122.06 33.0832 123.166 32.8638 124.352 32.7484C125.537 32.6099 126.632 32.6676 127.635 32.9216C128.661 33.1756 129.504 33.6604 130.166 34.3762C130.827 35.092 131.157 36.1194 131.157 37.4586C131.157 38.4514 130.941 39.3173 130.508 40.0561C130.12 40.7257 129.584 41.3029 128.9 41.7878C128.239 42.2265 127.544 42.5382 126.814 42.7229C126.084 42.9076 125.412 43 124.796 43H124.488C123.44 42.9538 122.482 42.7229 121.616 42.3073C120.749 41.8917 119.985 41.326 119.324 40.6103C118.686 39.8714 118.173 39.0056 117.785 38.0127C117.42 37.043 117.215 35.9347 117.17 34.6879C117.147 34.5955 117.135 34.5032 117.135 34.4108C117.135 34.3185 117.135 34.2261 117.135 34.1338C117.135 32.8177 117.363 31.6286 117.819 30.5665C118.275 29.5044 118.914 28.627 119.735 27.9343C119.005 27.3802 118.424 26.7106 117.99 25.9255C117.58 25.1174 117.375 24.24 117.375 23.2934C117.375 22.4391 117.557 21.6425 117.922 20.9036C118.287 20.1648 118.788 19.5298 119.427 18.9988C120.065 18.4447 120.806 18.0175 121.65 17.7173C122.493 17.3941 123.394 17.2325 124.352 17.2325C125.423 17.2325 126.381 17.3941 127.224 17.7173C128.091 18.0175 128.82 18.4447 129.413 18.9988C130.69 20.1071 131.328 21.5386 131.328 23.2934C131.328 24.1015 131.146 24.875 130.781 25.6138C130.439 26.3527 129.96 26.9876 129.345 27.5187C128.752 28.0498 128.057 28.4769 127.259 28.8002C126.483 29.1003 125.651 29.2735 124.762 29.3197V29.3543H124.557C123.804 29.3543 123.2 29.4813 122.744 29.7353C122.288 29.9662 121.935 30.3009 121.684 30.7396C121.433 31.1091 121.262 31.5709 121.171 32.125C121.08 32.6791 121.034 33.1063 121.034 33.4064ZM124.352 20.1763C124.146 20.1763 123.896 20.2225 123.599 20.3149C123.303 20.3841 123.018 20.5342 122.744 20.7651C122.493 20.996 122.277 21.3193 122.094 21.7349C121.912 22.1274 121.821 22.6469 121.821 23.2934C121.821 23.9399 121.912 24.4709 122.094 24.8865C122.277 25.279 122.493 25.5908 122.744 25.8216C123.018 26.0294 123.303 26.1795 123.599 26.2719C123.896 26.3412 124.146 26.3758 124.352 26.3758C124.58 26.3758 124.842 26.3412 125.138 26.2719C125.435 26.1795 125.708 26.0294 125.959 25.8216C126.233 25.5908 126.461 25.279 126.643 24.8865C126.825 24.4709 126.917 23.9399 126.917 23.2934C126.917 22.6469 126.825 22.1274 126.643 21.7349C126.461 21.3193 126.233 20.996 125.959 20.7651C125.708 20.5342 125.435 20.3841 125.138 20.3149C124.842 20.2225 124.58 20.1763 124.352 20.1763ZM127.224 39.1903C127.452 38.9594 127.601 38.7054 127.669 38.4283C127.737 38.1744 127.772 37.9204 127.772 37.6664C127.772 37.4355 127.76 37.2854 127.737 37.2162C127.669 36.8929 127.544 36.5928 127.361 36.3157C127.202 36.1079 126.974 35.9232 126.677 35.7615C126.381 35.623 126.062 35.5191 125.72 35.4498C125.378 35.4037 125.024 35.3806 124.659 35.3806C124.295 35.3806 123.93 35.4037 123.565 35.4498C123.2 35.496 122.858 35.5422 122.539 35.5884C122.22 35.6576 121.935 35.7269 121.684 35.7962C121.456 35.8654 121.285 35.9116 121.171 35.9347C121.217 36.2118 121.274 36.5119 121.342 36.8352C121.41 37.1584 121.513 37.4817 121.65 37.8049C121.809 38.1744 122.003 38.5092 122.231 38.8093C122.459 39.1326 122.744 39.3865 123.086 39.5713C123.565 39.8714 124.135 40.0215 124.796 40.0215C125.457 40.0215 125.97 39.9407 126.335 39.7791C126.723 39.6174 127.019 39.4212 127.224 39.1903Z" fill="#E5592A"/>
<path d="M134.216 24.9904C134.832 24.5979 135.527 24.3093 136.302 24.1246C137.077 23.9168 137.887 23.8129 138.73 23.8129C139.916 23.8129 141.045 23.9861 142.116 24.3324C142.048 23.6166 141.9 22.9817 141.672 22.4275C141.375 21.7118 140.931 21.1923 140.338 20.869C140.11 20.7536 139.859 20.6728 139.585 20.6266C139.335 20.5573 139.038 20.5227 138.696 20.5227H138.32C138.001 20.5458 137.682 20.6035 137.362 20.6958C137.043 20.7651 136.724 20.8575 136.405 20.9729C136.086 21.0884 135.766 21.1923 135.447 21.2846C135.128 21.3539 134.82 21.3885 134.524 21.3885C134.205 21.3885 133.897 21.3193 133.6 21.1807C133.327 21.0191 133.087 20.7536 132.882 20.3841L132.814 20.2456L132.882 20.1417C133.566 19.4029 134.364 18.8141 135.276 18.3754C136.211 17.9136 137.226 17.6481 138.32 17.5788C138.434 17.5557 138.525 17.5442 138.594 17.5442C138.685 17.5442 138.787 17.5442 138.901 17.5442C139.95 17.5442 140.908 17.7404 141.774 18.1329C142.641 18.5024 143.393 19.0219 144.032 19.6915C145.331 21.123 146.004 23.0048 146.049 25.3368V25.6138C146.049 28.0151 145.445 29.9662 144.237 31.467C143.644 32.2058 142.926 32.8061 142.082 33.2679C141.261 33.7297 140.338 34.0183 139.312 34.1338C139.175 34.1568 139.038 34.1684 138.901 34.1684C138.765 34.1684 138.616 34.1684 138.457 34.1684C137.978 34.1684 137.476 34.1222 136.952 34.0299C136.428 33.9606 135.915 33.8105 135.413 33.5796C134.889 33.3718 134.41 33.1063 133.977 32.783C133.543 32.4367 133.179 31.998 132.882 31.467C132.449 30.7974 132.221 29.9777 132.198 29.008V28.8002C132.198 27.8997 132.381 27.1493 132.745 26.549C133.065 25.9486 133.555 25.4291 134.216 24.9904ZM141.295 26.6529C140.999 26.6067 140.657 26.5605 140.269 26.5143C139.905 26.4681 139.528 26.4451 139.141 26.4451C138.822 26.4451 138.514 26.4681 138.217 26.5143C137.921 26.5374 137.647 26.5951 137.397 26.6875C136.827 26.8722 136.393 27.1608 136.097 27.5533C135.983 27.6919 135.892 27.8535 135.823 28.0382C135.755 28.1998 135.709 28.3845 135.687 28.5923C135.664 28.6616 135.652 28.7655 135.652 28.9041C135.652 29.1349 135.687 29.3889 135.755 29.666C135.823 29.92 135.96 30.1624 136.165 30.3933C136.348 30.6242 136.61 30.8205 136.952 30.9821C137.317 31.1437 137.796 31.2245 138.388 31.2245C138.571 31.2245 138.708 31.213 138.799 31.1899C139.437 31.1668 139.996 30.9821 140.475 30.6357C140.703 30.4972 140.896 30.3356 141.056 30.1509C141.216 29.9431 141.352 29.7237 141.466 29.4928C141.717 29.0541 141.888 28.6039 141.979 28.1421C142.071 27.6803 142.116 27.2532 142.116 26.8607C142.093 26.8607 142.071 26.8607 142.048 26.8607C142.048 26.8376 142.036 26.826 142.014 26.826C141.922 26.8029 141.82 26.7798 141.706 26.7568C141.592 26.7337 141.455 26.699 141.295 26.6529Z" fill="#E5592A"/>
<path d="M148.635 25.0943C148.635 23.5474 148.852 22.289 149.285 21.3193C149.741 20.3264 150.311 19.5529 150.995 18.9988C151.702 18.4447 152.488 18.0752 153.355 17.8905C154.244 17.6827 155.133 17.5788 156.022 17.5788C156.889 17.5788 157.767 17.6827 158.656 17.8905C159.545 18.0752 160.343 18.4447 161.05 18.9988C161.78 19.5529 162.361 20.3264 162.794 21.3193C163.25 22.289 163.478 23.5474 163.478 25.0943L163.615 33.822C162.224 33.822 161.153 33.5219 160.4 32.9216C159.648 32.3213 159.271 31.34 159.271 29.9777L159.306 25.0943C159.306 24.1246 159.203 23.3511 158.998 22.7739C158.816 22.1736 158.565 21.7118 158.245 21.3885C157.926 21.0422 157.573 20.8113 157.185 20.6958C156.798 20.5804 156.41 20.5227 156.022 20.5227C155.635 20.5227 155.247 20.5804 154.86 20.6958C154.495 20.8113 154.153 21.0422 153.834 21.3885C153.537 21.7118 153.286 22.1736 153.081 22.7739C152.899 23.3511 152.808 24.1246 152.808 25.0943V30.4626C152.83 31.1553 152.842 31.7209 152.842 32.1596C152.865 32.5983 152.887 32.9447 152.91 33.1986C152.933 33.4757 152.956 33.6835 152.979 33.822C151.565 33.822 150.482 33.5219 149.73 32.9216C148.977 32.3213 148.601 31.34 148.601 29.9777L148.635 25.0943Z" fill="#E5592A"/>
<path d="M170.577 12.834C170.782 12.4646 170.884 12.072 170.884 11.6564C170.884 11.2639 170.793 10.8945 170.611 10.5481C170.428 10.2018 170.155 9.93629 169.79 9.75157C169.471 9.56686 169.14 9.4745 168.798 9.4745C168.411 9.4745 168.034 9.58995 167.67 9.82084C167.305 10.0286 167.02 10.3288 166.815 10.7213C166.609 11.0677 166.507 11.4602 166.507 11.8989C166.507 12.2914 166.598 12.6608 166.78 13.0071C166.963 13.3304 167.225 13.5959 167.567 13.8037C167.886 13.9653 168.228 14.0462 168.593 14.0462C169.437 14.0462 170.098 13.6421 170.577 12.834ZM173.244 30.705C173.29 31.3053 173.244 31.8479 173.107 32.3328C172.993 32.7484 172.765 33.1525 172.423 33.545C172.081 33.9144 171.546 34.1222 170.816 34.1684C170.109 34.2377 169.494 34.1568 168.969 33.9259C168.445 33.7181 168 33.418 167.635 33.0255C167.293 32.633 167.031 32.1712 166.849 31.6401C166.689 31.1091 166.609 30.5549 166.609 29.9777L166.644 21.8041C166.644 20.4188 167.008 19.4259 167.738 18.8256C168.468 18.2253 169.539 17.9251 170.953 17.9251C170.93 18.0868 170.907 18.3061 170.884 18.5832C170.862 18.8372 170.839 19.1835 170.816 19.6222C170.816 20.0378 170.816 20.5919 170.816 21.2846V29.5621C170.816 30.1162 170.919 30.5203 171.124 30.7743C171.329 31.0052 171.568 31.1437 171.842 31.1899C172.116 31.2361 172.389 31.213 172.663 31.1206C172.936 31.0052 173.13 30.8666 173.244 30.705Z" fill="#E5592A"/>
<path d="M175.02 25.0943C175.02 23.5474 175.237 22.289 175.67 21.3193C176.126 20.3264 176.696 19.5529 177.38 18.9988C178.087 18.4447 178.873 18.0752 179.74 17.8905C180.629 17.6827 181.518 17.5788 182.408 17.5788C183.274 17.5788 184.152 17.6827 185.041 17.8905C185.93 18.0752 186.728 18.4447 187.435 18.9988C188.165 19.5529 188.746 20.3264 189.179 21.3193C189.635 22.289 189.863 23.5474 189.863 25.0943L190 33.822C188.609 33.822 187.538 33.5219 186.785 32.9216C186.033 32.3213 185.657 31.34 185.657 29.9777L185.691 25.0943C185.691 24.1246 185.588 23.3511 185.383 22.7739C185.201 22.1736 184.95 21.7118 184.631 21.3885C184.311 21.0422 183.958 20.8113 183.57 20.6958C183.183 20.5804 182.795 20.5227 182.408 20.5227C182.02 20.5227 181.632 20.5804 181.245 20.6958C180.88 20.8113 180.538 21.0422 180.219 21.3885C179.922 21.7118 179.671 22.1736 179.466 22.7739C179.284 23.3511 179.193 24.1246 179.193 25.0943V30.4626C179.215 31.1553 179.227 31.7209 179.227 32.1596C179.25 32.5983 179.272 32.9447 179.295 33.1986C179.318 33.4757 179.341 33.6835 179.364 33.822C177.95 33.822 176.867 33.5219 176.115 32.9216C175.362 32.3213 174.986 31.34 174.986 29.9777L175.02 25.0943Z" fill="#E5592A"/>
</svg>
